<svg xmlns="http://www.w3.org/2000/svg" viewBox="0 0 24 24">
	<path fill="currentColor" d="M3.577 19.577V4.616q0-.672.472-1.144T5.192 3h9.77q.67 0 1.143.472q.472.472.472 1.144v.251q-.293.14-.533.32q-.24.179-.467.39v-.961q0-.27-.173-.443T14.96 4H5.192q-.269 0-.442.173t-.173.443v12.54L5.733 16h9.229q.269 0 .442-.173t.173-.442v-2.962q.227.212.467.39q.24.18.533.32v2.252q0 .67-.472 1.143q-.472.472-1.143.472H6.154zm3.5-6.077h3v-1h-3zm11.539-2q-1.039 0-1.77-.73T16.116 9t.73-1.77t1.77-.73q.486 0 .823.137t.677.461V1.5h3v1h-2V9q0 1.039-.731 1.77q-.731.73-1.77.73m-11.538-1h6v-1h-6zm0-3h6v-1h-6zm-2.5 8.5V4z" />
</svg>
